<svg xmlns="http://www.w3.org/2000/svg" height="24" viewBox="0 -960 960 960" width="24">
    <path fill="white" d="M564.349-73.392v-108.565q102.652-27.131 166.847-110.478 64.195-83.348 64.195-189 0-105.217-64.695-188.13-64.695-82.912-166.347-110.043v-108.565q147.652 27.696 242.064 142.108 94.413 114.413 94.413 264.63 0 150.087-94.413 265.5-94.412 115.412-242.064 142.543ZM59.174-327.565v-304.87H239.39l244.958-245.827v796.524L239.391-327.565H59.174Zm505.175 22.391v-350.217q52.13 24.695 84.043 71.478Q680.306-537.13 680.306-480q0 57.13-31.914 103.913-31.913 46.783-84.043 70.913Z"/>
</svg>