<svg xmlns="http://www.w3.org/2000/svg" height="24" viewBox="0 -960 960 960" width="24">
    <path fill="white" d="M807.565-12.478 696.217-124.957q-29.782 18.478-63.717 31.87-33.934 13.39-71.586 19.695v-108.565q15.652-3.305 29.869-8.913 14.217-5.609 27.999-13.217L480.914-342.521v260.783L236.522-327.565H55.739v-304.87h140.913L7.609-824.87l73.869-73.87L882-86.913l-74.435 74.435Zm35.87-264.131-78.305-79.434q13.131-29.566 20.261-60.913 7.131-31.348 7.131-64.479 0-105.217-64.978-188.13-64.978-82.912-166.63-110.043v-108.565q147.652 27.696 242.63 142.108 94.978 114.413 94.978 264.63 0 55.696-14.413 107.479-14.413 51.782-40.674 97.347ZM672.349-449.39 560.914-561.955v-93.436q52.131 24.13 84.609 71.195Q678.001-537.13 678.001-480q0 8.218-1.413 15.87-1.413 7.653-4.239 14.74ZM480.914-643.651l-115.61-118.436 115.61-116.175v234.611Z"/>
</svg>